<svg width="38" height="25" viewBox="0 0 38 25" fill="none" xmlns="http://www.w3.org/2000/svg">
<path d="M34.1316 0.515625H3.35726C3.22907 0.515625 3.10065 0.515625 2.97268 0.516304C2.86464 0.51721 2.75683 0.518343 2.6488 0.521287C2.41348 0.527629 2.17611 0.541671 1.94374 0.583345C1.71069 0.623273 1.48489 0.697699 1.27378 0.804173C0.849374 1.02004 0.504411 1.365 0.288548 1.7894C0.181884 2.0006 0.10745 2.22657 0.0677205 2.45981C0.0255934 2.69242 0.0117775 2.92955 0.00543576 3.16465C0.00267543 3.27259 0.00101442 3.38056 0.00045298 3.48853C0 3.61627 0 3.74446 0 3.87288V21.1581C0 21.2866 0 21.4145 0.00045298 21.5429C0.00113245 21.6508 0.00249139 21.7588 0.00543576 21.8668C0.0117775 22.1015 0.0258198 22.3388 0.0677205 22.5712C0.107368 22.8044 0.181727 23.0304 0.288322 23.2416C0.395493 23.4525 0.535383 23.6452 0.702798 23.8124C0.869926 23.9799 1.06257 24.1198 1.27355 24.2268C1.48804 24.3362 1.70773 24.4058 1.94396 24.4481C2.17611 24.4896 2.41348 24.5036 2.6488 24.51C2.75683 24.5125 2.86464 24.5138 2.97268 24.5145C3.10065 24.5154 3.22907 24.5154 3.35726 24.5154H34.1316C34.2595 24.5154 34.388 24.5154 34.5159 24.5145C34.6237 24.514 34.7315 24.5125 34.84 24.51C35.0749 24.5036 35.3123 24.4896 35.5451 24.4481C35.7782 24.4082 36.004 24.3336 36.2151 24.2268C36.6392 24.0107 36.9841 23.6658 37.2003 23.2416C37.3097 23.0271 37.379 22.8074 37.4209 22.5712C37.463 22.3388 37.4766 22.1015 37.4829 21.8668C37.4859 21.7588 37.4875 21.6508 37.4879 21.5429C37.4888 21.4145 37.4888 21.2866 37.4888 21.1581V3.87311C37.4888 3.74469 37.4888 3.6165 37.4879 3.4883C37.4875 3.3804 37.4858 3.27251 37.4829 3.16465C37.4766 2.92955 37.463 2.69242 37.4209 2.45981C37.3814 2.22653 37.3071 2.00053 37.2003 1.7894C36.9843 1.36507 36.6394 1.02014 36.2151 0.804173C36.0039 0.697809 35.7781 0.623461 35.5451 0.583572C35.3123 0.541671 35.0749 0.527855 34.84 0.521514C34.732 0.51877 34.624 0.517109 34.5159 0.516531C34.388 0.515625 34.2595 0.515625 34.1316 0.515625Z" fill="black"/>
<path d="M34.1285 1.31641L34.5072 1.31709C34.6095 1.31777 34.7121 1.3189 34.8152 1.32162C34.9948 1.3266 35.2045 1.33634 35.4002 1.37144C35.5701 1.40202 35.7128 1.44845 35.8496 1.51821C36.1233 1.6574 36.3458 1.88005 36.4847 2.15397C36.554 2.28986 36.6002 2.43164 36.6307 2.6031C36.6656 2.79652 36.6754 3.00693 36.6801 3.18744C36.6831 3.28936 36.6844 3.39128 36.6846 3.49547C36.6858 3.62162 36.6858 3.74755 36.6858 3.87393V21.1592C36.6858 21.2856 36.6858 21.4115 36.6849 21.5401C36.6844 21.6421 36.6831 21.744 36.6803 21.8459C36.6754 22.0262 36.6656 22.2366 36.6303 22.4323C36.6046 22.5879 36.5553 22.7388 36.4842 22.8796C36.345 23.1536 36.1223 23.3763 35.8482 23.5154C35.7123 23.5847 35.5701 23.6311 35.4018 23.6614C35.2023 23.697 34.9835 23.7067 34.8188 23.7113C34.7153 23.7135 34.6123 23.7151 34.5065 23.7156C34.3808 23.7165 34.2544 23.7165 34.1285 23.7165H3.34919C3.22462 23.7165 3.10005 23.7165 2.97322 23.7156C2.87129 23.7151 2.76936 23.7138 2.66745 23.7115C2.49895 23.707 2.28016 23.697 2.0822 23.6617C1.9257 23.6356 1.77404 23.586 1.6324 23.5145C1.49653 23.4454 1.37252 23.3552 1.26503 23.2472C1.1572 23.1396 1.06714 23.0155 0.998224 22.8796C0.927049 22.738 0.87772 22.5864 0.851912 22.43C0.81658 22.2346 0.806614 22.0251 0.802084 21.8461C0.799526 21.7439 0.798016 21.6415 0.797554 21.5392L0.796875 21.2387V3.79466L0.797328 3.49456C0.797796 3.3921 0.799306 3.28964 0.801858 3.18721C0.806841 3.00783 0.81658 2.79833 0.852139 2.60128C0.877998 2.4452 0.927327 2.29393 0.998451 2.15261C1.0673 2.01717 1.15699 1.8935 1.26571 1.78501C1.37346 1.67709 1.4976 1.58689 1.63353 1.51776C1.77483 1.44677 1.926 1.39745 2.08198 1.37144C2.27789 1.33634 2.48785 1.3266 2.66768 1.32162C2.77005 1.3189 2.87265 1.31777 2.97435 1.31709L3.35417 1.31641H34.1285Z" fill="white"/>
<path d="M9.85283 8.61734C10.1708 8.21985 10.3864 7.68601 10.3296 7.14062C9.86438 7.16373 9.2968 7.44752 8.96793 7.84546C8.67282 8.1861 8.41167 8.74213 8.47962 9.26465C9.00191 9.30994 9.52374 9.00373 9.85283 8.61734Z" fill="black"/>
<path d="M10.3225 9.36632C9.56381 9.32102 8.91922 9.79665 8.55706 9.79665C8.19468 9.79665 7.64 9.38897 7.04003 9.40007C6.25932 9.41139 5.53501 9.85305 5.13865 10.5552C4.32374 11.9594 4.92348 14.0431 5.7162 15.1869C6.101 15.7531 6.56486 16.376 7.17593 16.3535C7.75347 16.3309 7.97974 15.9798 8.6814 15.9798C9.38284 15.9798 9.58668 16.3535 10.198 16.3422C10.8317 16.3309 11.2281 15.776 11.6129 15.2098C12.0545 14.5643 12.235 13.9414 12.2464 13.9074C12.235 13.8961 11.0242 13.4316 11.0129 12.0387C11.0016 10.8723 11.9637 10.3174 12.009 10.2832C11.4656 9.47957 10.6168 9.38897 10.3223 9.36632" fill="black"/>
<path d="M17.8841 7.78906C19.5325 7.78906 20.6806 8.92536 20.6806 10.5796C20.6806 12.2398 19.509 13.382 17.8429 13.382H16.0178V16.2847H14.6992V7.78906H17.8841ZM16.0178 12.2751H17.5308C18.6791 12.2751 19.3323 11.6571 19.3323 10.5855C19.3323 9.51424 18.6789 8.90181 17.5367 8.90181H16.0178V12.2751Z" fill="black"/>
<path d="M21.0078 14.5232C21.0078 13.434 21.8379 12.81 23.3685 12.7158L25.011 12.6157V12.1446C25.011 11.456 24.5578 11.0792 23.7513 11.0792C23.0859 11.0792 22.603 11.4205 22.5033 11.9444H21.3138C21.3494 10.8436 22.3853 10.043 23.7866 10.043C25.2937 10.043 26.2769 10.8318 26.2769 12.0565V16.2834H25.0584V15.2649H25.0289C24.6815 15.9301 23.9159 16.348 23.0859 16.348C21.8615 16.348 21.0078 15.6182 21.0078 14.5232ZM25.011 13.9757V13.4988L23.5452 13.593C22.7208 13.646 22.2913 13.952 22.2913 14.4876C22.2913 15.0058 22.7386 15.3415 23.4392 15.3415C24.3338 15.3415 25.011 14.7703 25.011 13.9757Z" fill="black"/>
<path d="M27.3976 18.5574V17.5391C27.48 17.5506 27.68 17.5624 27.786 17.5624C28.3688 17.5624 28.6985 17.3155 28.8988 16.6793L29.0165 16.3027L26.7852 10.1211H28.1627L29.7171 15.1369H29.7465L31.3007 10.1211H32.6431L30.3293 16.6146C29.7993 18.1042 29.193 18.5929 27.9097 18.5929C27.8096 18.5929 27.4857 18.5812 27.3976 18.5574Z" fill="black"/>
</svg>
