<svg width="120" height="40" viewBox="0 0 120 40" fill="none" xmlns="http://www.w3.org/2000/svg">
<g clip-path="url(#clip0_1609_2744)">
<path d="M110.136 0H9.53595C9.16895 0 8.80595 0 8.44095 0.002C8.13495 0.004 7.83095 0.01 7.52195 0.015C6.85048 0.0223323 6.18054 0.0808351 5.51795 0.19C4.85668 0.302207 4.21613 0.513588 3.61795 0.817C3.01967 1.12335 2.47304 1.52151 1.99795 1.997C1.52121 2.47032 1.12379 3.01732 0.820953 3.617C0.517031 4.21585 0.306272 4.85757 0.195953 5.52C0.0846811 6.18171 0.0248354 6.85105 0.0169531 7.522C0.00695313 7.829 0.00695312 8.137 0.00195312 8.443V31.56C0.00695312 31.87 0.00795313 32.17 0.0169531 32.481C0.0251619 33.152 0.085342 33.8213 0.196953 34.483C0.306561 35.1461 0.516997 35.7885 0.820953 36.388C1.12408 36.9854 1.52189 37.5297 1.99895 38C2.4717 38.4771 3.01799 38.8751 3.61695 39.179C4.21548 39.4831 4.8563 39.6954 5.51795 39.809C6.1806 39.9179 6.85047 39.9771 7.52195 39.986C7.83195 39.993 8.13495 39.997 8.44095 39.997C8.80695 39.999 9.16895 39.999 9.53595 39.999H110.136C110.496 39.999 110.86 39.999 111.22 39.997C111.524 39.997 111.837 39.993 112.142 39.987C112.812 39.9782 113.481 39.9187 114.142 39.809C114.806 39.6946 115.449 39.4823 116.05 39.179C116.649 38.875 117.194 38.4769 117.667 38C118.143 37.5273 118.542 36.9827 118.849 36.386C119.151 35.7862 119.36 35.1438 119.468 34.481C119.579 33.8192 119.641 33.15 119.653 32.479C119.657 32.169 119.657 31.869 119.657 31.558C119.665 31.194 119.665 30.833 119.665 30.464V9.536C119.665 9.17 119.665 8.806 119.657 8.444C119.657 8.138 119.657 7.83 119.653 7.524C119.641 6.85266 119.579 6.18314 119.468 5.521C119.359 4.8589 119.15 4.21723 118.848 3.618C118.231 2.41511 117.252 1.43588 116.05 0.818C115.449 0.515273 114.806 0.303946 114.142 0.191C113.481 0.0810377 112.812 0.0221968 112.142 0.015C111.837 0.01 111.524 0.004 111.22 0.002C110.86 0 110.495 0 110.136 0Z" fill="#A6A6A6"/>
<path d="M8.44505 39.125C8.14005 39.125 7.84305 39.121 7.54105 39.115C6.91452 39.1066 6.28947 39.0518 5.67105 38.951C5.09489 38.8516 4.53675 38.6669 4.01505 38.403C3.49793 38.1414 3.02625 37.7984 2.61805 37.387C2.20411 36.9801 1.85956 36.5082 1.59805 35.99C1.33311 35.4687 1.14965 34.9099 1.05405 34.333C0.951341 33.7131 0.895848 33.0863 0.888047 32.458C0.881047 32.248 0.873047 31.545 0.873047 31.545V8.445C0.873047 8.445 0.882047 7.753 0.888047 7.55C0.8955 6.92272 0.950659 6.29691 1.05305 5.678C1.14866 5.09952 1.33211 4.53905 1.59705 4.016C1.85776 3.4983 2.20052 3.0262 2.61205 2.618C3.023 2.20578 3.49609 1.86058 4.01405 1.595C4.53469 1.33189 5.09191 1.14851 5.66705 1.051C6.28741 0.949562 6.9145 0.894742 7.54305 0.887L8.44505 0.875H111.214L112.127 0.888C112.75 0.895224 113.371 0.949378 113.985 1.05C114.566 1.14872 115.129 1.33341 115.656 1.598C116.694 2.13288 117.538 2.97908 118.071 4.018C118.332 4.53755 118.512 5.0935 118.606 5.667C118.71 6.29093 118.768 6.9216 118.78 7.554C118.783 7.837 118.783 8.142 118.783 8.444C118.791 8.819 118.791 9.176 118.791 9.536V30.465C118.791 30.828 118.791 31.183 118.783 31.54C118.783 31.865 118.783 32.163 118.779 32.47C118.768 33.091 118.711 33.7103 118.609 34.323C118.516 34.9041 118.334 35.4673 118.069 35.993C117.805 36.5056 117.462 36.9733 117.053 37.379C116.644 37.7927 116.172 38.1377 115.653 38.401C115.128 38.6671 114.566 38.8525 113.985 38.951C113.367 39.0519 112.742 39.1064 112.116 39.114C111.823 39.121 111.516 39.125 111.219 39.125L110.135 39.127L8.44505 39.125Z" fill="black"/>
<path d="M24.77 20.2987C24.7809 19.4643 25.0026 18.6462 25.4145 17.9205C25.8264 17.1947 26.4151 16.5849 27.126 16.1477C26.6744 15.5027 26.0786 14.9718 25.386 14.5972C24.6934 14.2226 23.923 14.0146 23.136 13.9897C21.456 13.8137 19.828 14.9948 18.972 14.9948C18.1 14.9948 16.782 14.0067 15.364 14.0367C14.4463 14.0664 13.5519 14.3332 12.768 14.8113C11.9841 15.2894 11.3374 15.9624 10.891 16.7648C8.95696 20.1128 10.4 25.0337 12.252 27.7407C13.179 29.0658 14.262 30.5458 15.68 30.4938C17.067 30.4358 17.585 29.6087 19.26 29.6087C20.918 29.6087 21.404 30.4938 22.85 30.4608C24.339 30.4358 25.276 29.1287 26.17 27.7907C26.8364 26.8466 27.3494 25.8031 27.69 24.6988C26.825 24.3331 26.0868 23.7208 25.5675 22.9384C25.0483 22.1559 24.7709 21.2378 24.77 20.2987ZM22.038 12.2087C22.8496 11.2348 23.2495 9.98284 23.153 8.71875C21.9129 8.84893 20.7675 9.44165 19.945 10.3787C19.5429 10.8362 19.235 11.3684 19.0387 11.9449C18.8424 12.5215 18.7616 13.131 18.801 13.7387C19.4211 13.7451 20.0346 13.6108 20.5953 13.3458C21.156 13.0807 21.6493 12.692 22.038 12.2087Z" fill="white"/>
<path d="M42.3037 27.1401H37.5717L36.4347 30.4961H34.4297L38.9137 18.0781H40.9967L45.4797 30.4961H43.4407L42.3037 27.1401ZM38.0607 25.5901H41.8127L39.9627 20.1441H39.9117L38.0607 25.5901ZM55.1617 25.9701C55.1617 28.7831 53.6557 30.5901 51.3827 30.5901C50.8073 30.6201 50.235 30.4875 49.7313 30.2076C49.2277 29.9277 48.813 29.5116 48.5347 29.0071H48.4917V33.4911H46.6317V21.4421H48.4317V22.9481H48.4647C48.7558 22.4457 49.1776 22.0317 49.6852 21.7499C50.1929 21.4682 50.7674 21.3293 51.3477 21.3481C53.6457 21.3481 55.1617 23.1641 55.1617 25.9701ZM53.2517 25.9701C53.2517 24.1371 52.3037 22.9321 50.8587 22.9321C49.4387 22.9321 48.4837 24.1621 48.4837 25.9701C48.4837 27.7941 49.4387 29.0161 50.8587 29.0161C52.3037 29.0161 53.2517 27.8191 53.2517 25.9701ZM65.1267 25.9701C65.1267 28.7831 63.6207 30.5901 61.3477 30.5901C60.7723 30.6201 60.2 30.4875 59.6963 30.2076C59.1927 29.9277 58.778 29.5116 58.4997 29.0071H58.4567V33.4911H56.5977V21.4421H58.3967V22.9481H58.4307C58.7218 22.4457 59.1436 22.0317 59.6512 21.7499C60.1589 21.4682 60.7334 21.3293 61.3137 21.3481C63.6117 21.3481 65.1267 23.1641 65.1267 25.9701ZM63.2167 25.9701C63.2167 24.1371 62.2687 22.9321 60.8237 22.9321C59.4037 22.9321 58.4487 24.1621 58.4487 25.9701C58.4487 27.7941 59.4037 29.0161 60.8237 29.0161C62.2687 29.0161 63.2167 27.8191 63.2167 25.9701ZM71.7117 27.0361C71.8497 28.2681 73.0457 29.0761 74.6817 29.0761C76.2477 29.0761 77.3747 28.2681 77.3747 27.1571C77.3747 26.1931 76.6947 25.6171 75.0847 25.2211L73.4757 24.8331C71.1957 24.2831 70.1367 23.2161 70.1367 21.4851C70.1367 19.3431 72.0037 17.8711 74.6557 17.8711C77.2797 17.8711 79.0787 19.3431 79.1387 21.4851H77.2627C77.1507 20.2461 76.1267 19.4981 74.6287 19.4981C73.1307 19.4981 72.1077 20.2551 72.1077 21.3561C72.1077 22.2341 72.7617 22.7511 74.3627 23.1461L75.7307 23.4821C78.2787 24.0851 79.3367 25.1081 79.3367 26.9251C79.3367 29.2481 77.4867 30.7031 74.5437 30.7031C71.7897 30.7031 69.9297 29.2831 69.8097 27.0361H71.7117ZM83.3477 19.3001V21.4421H85.0697V22.9141H83.3477V27.9051C83.3477 28.6811 83.6927 29.0421 84.4497 29.0421C84.654 29.0385 84.8579 29.0242 85.0607 28.9991V30.4621C84.7205 30.5257 84.3747 30.5545 84.0287 30.5481C82.1957 30.5481 81.4807 29.8591 81.4807 28.1031V22.9141H80.1647V21.4421H81.4807V19.3001H83.3477ZM86.0667 25.9701C86.0667 23.1211 87.7447 21.3311 90.3607 21.3311C92.9857 21.3311 94.6557 23.1211 94.6557 25.9701C94.6557 28.8261 92.9947 30.6081 90.3607 30.6081C87.7277 30.6081 86.0667 28.8261 86.0667 25.9701ZM92.7617 25.9701C92.7617 24.0161 91.8667 22.8621 90.3607 22.8621C88.8547 22.8621 87.9607 24.0241 87.9607 25.9701C87.9607 27.9321 88.8547 29.0761 90.3607 29.0761C91.8667 29.0761 92.7617 27.9321 92.7617 25.9701ZM96.1877 21.4421H97.9607V22.9831H98.0037C98.1238 22.5021 98.4058 22.0771 98.8022 21.7794C99.1986 21.4817 99.6853 21.3294 100.181 21.3481C100.395 21.3472 100.609 21.3704 100.818 21.4171V23.1551C100.547 23.0726 100.265 23.0347 99.9827 23.0431C99.7127 23.0321 99.4435 23.0797 99.1936 23.1826C98.9438 23.2855 98.7191 23.4412 98.5351 23.6391C98.3511 23.837 98.2121 24.0723 98.1276 24.329C98.0431 24.5857 98.0152 24.8576 98.0457 25.1261V30.4961H96.1877V21.4421ZM109.386 27.8371C109.136 29.4801 107.536 30.6081 105.488 30.6081C102.854 30.6081 101.219 28.8441 101.219 26.0131C101.219 23.1731 102.863 21.3311 105.409 21.3311C107.915 21.3311 109.489 23.0511 109.489 25.7971V26.4341H103.095V26.5461C103.065 26.8793 103.107 27.215 103.217 27.5308C103.327 27.8466 103.504 28.1353 103.734 28.3778C103.964 28.6204 104.244 28.8111 104.554 28.9373C104.863 29.0636 105.196 29.1225 105.531 29.1101C105.97 29.1511 106.41 29.0494 106.787 28.8201C107.163 28.5907 107.456 28.246 107.621 27.8371H109.386ZM103.104 25.1351H107.63C107.646 24.8355 107.601 24.5357 107.496 24.2545C107.392 23.9734 107.23 23.7168 107.022 23.501C106.813 23.2852 106.563 23.1149 106.285 23.0006C106.008 22.8864 105.71 22.8307 105.41 22.8371C105.107 22.8352 104.807 22.8934 104.527 23.0081C104.247 23.1228 103.992 23.2919 103.778 23.5055C103.563 23.7192 103.393 23.9732 103.278 24.2529C103.162 24.5326 103.103 24.8324 103.104 25.1351Z" fill="white"/>
<path d="M37.8269 8.7315C38.2165 8.70354 38.6075 8.76241 38.9717 8.90385C39.3358 9.04528 39.664 9.26577 39.9326 9.54941C40.2012 9.83304 40.4036 10.1728 40.525 10.544C40.6464 10.9153 40.684 11.309 40.6349 11.6965C40.6349 13.6025 39.6049 14.6985 37.8269 14.6985H35.6719V8.7305L37.8269 8.7315ZM36.5989 13.8545H37.7239C38.0022 13.871 38.2807 13.8252 38.5392 13.7206C38.7976 13.6159 39.0294 13.4549 39.2178 13.2494C39.4062 13.0438 39.5465 12.7989 39.6283 12.5323C39.7101 12.2658 39.7315 11.9844 39.6909 11.7085C39.7286 11.4337 39.7051 11.154 39.622 10.8894C39.539 10.6247 39.3984 10.3817 39.2104 10.1778C39.0225 9.97386 38.7917 9.81402 38.5347 9.70972C38.2777 9.60542 38.0008 9.55924 37.7239 9.5745H36.5989V13.8545ZM41.6809 12.4445C41.6537 12.1491 41.6883 11.8513 41.7827 11.5701C41.8771 11.2889 42.029 11.0305 42.2289 10.8114C42.4288 10.5922 42.6722 10.4172 42.9436 10.2974C43.2149 10.1776 43.5083 10.1158 43.8049 10.1158C44.1015 10.1158 44.3948 10.1776 44.6662 10.2974C44.9375 10.4172 45.1809 10.5922 45.3808 10.8114C45.5807 11.0305 45.7327 11.2889 45.827 11.5701C45.9214 11.8513 45.9561 12.1491 45.9289 12.4445C45.9584 12.7411 45.9255 13.0406 45.8322 13.3237C45.7389 13.6068 45.5874 13.8672 45.3873 14.0882C45.1873 14.3092 44.9431 14.4858 44.6707 14.6066C44.3982 14.7275 44.1034 14.7899 43.8054 14.7899C43.5073 14.7899 43.2125 14.7275 42.9401 14.6066C42.6676 14.4858 42.4235 14.3092 42.2234 14.0882C42.0234 13.8672 41.8718 13.6068 41.7785 13.3237C41.6853 13.0406 41.6513 12.7411 41.6809 12.4445ZM45.0149 12.4445C45.0149 11.4685 44.5759 10.8975 43.8069 10.8975C43.0339 10.8975 42.5999 11.4685 42.5999 12.4445C42.5999 13.4285 43.0339 13.9945 43.8069 13.9945C44.5769 13.9945 45.0149 13.4245 45.0149 12.4445ZM51.5739 14.6985H50.6519L49.7219 11.3815H49.6519L48.7249 14.6985H47.8119L46.5699 10.1955H47.4719L48.2779 13.6315H48.3449L49.2709 10.1955H50.1229L51.0489 13.6315H51.1189L51.9219 10.1955H52.8109L51.5739 14.6985ZM53.8549 10.1955H54.7099V10.9105H54.7759C54.8886 10.6536 55.0786 10.4382 55.3196 10.2945C55.5605 10.1507 55.8403 10.0857 56.1199 10.1085C56.339 10.092 56.559 10.1251 56.7637 10.2052C56.9683 10.2853 57.1523 10.4104 57.302 10.5713C57.4517 10.7321 57.5633 10.9246 57.6286 11.1344C57.6938 11.3443 57.711 11.5661 57.6789 11.7835V14.6985H56.7899V12.0065C56.7899 11.2825 56.4759 10.9225 55.8179 10.9225C55.6691 10.9156 55.5207 10.941 55.3827 10.9968C55.2446 11.0526 55.1203 11.1377 55.0182 11.246C54.9161 11.3544 54.8387 11.4835 54.7911 11.6246C54.7436 11.7657 54.7271 11.9154 54.7429 12.0635V14.6985H53.8549V10.1955ZM59.0949 8.4375H59.9829V14.6975H59.0949V8.4375ZM61.2189 12.4445C61.1909 12.1488 61.2249 11.8504 61.3189 11.5686C61.4129 11.2868 61.5647 11.0277 61.7646 10.808C61.9645 10.5883 62.2081 10.4127 62.4798 10.2926C62.7515 10.1725 63.0453 10.1104 63.3424 10.1104C63.6394 10.1104 63.9332 10.1725 64.2049 10.2926C64.4766 10.4127 64.7202 10.5883 64.9201 10.808C65.12 11.0277 65.2718 11.2868 65.3658 11.5686C65.4598 11.8504 65.4939 12.1488 65.4659 12.4445C65.4954 12.7411 65.4625 13.0406 65.3692 13.3237C65.2759 13.6068 65.1244 13.8672 64.9243 14.0882C64.7243 14.3092 64.4801 14.4858 64.2077 14.6066C63.9352 14.7275 63.6404 14.7899 63.3424 14.7899C63.0443 14.7899 62.7495 14.7275 62.4771 14.6066C62.2046 14.4858 61.9605 14.3092 61.7604 14.0882C61.5604 13.8672 61.4088 13.6068 61.3155 13.3237C61.2223 13.0406 61.1893 12.7411 61.2189 12.4445ZM64.5519 12.4445C64.5519 11.4685 64.1129 10.8975 63.3439 10.8975C62.5709 10.8975 62.1369 11.4685 62.1369 12.4445C62.1369 13.4285 62.5709 13.9945 63.3439 13.9945C64.1139 13.9945 64.5519 13.4245 64.5519 12.4445ZM66.4009 13.4245C66.4009 12.6145 67.0049 12.1465 68.0769 12.0805L69.2969 12.0105V11.6215C69.2969 11.1465 68.9819 10.8775 68.3749 10.8775C67.8779 10.8775 67.5349 11.0595 67.4359 11.3775H66.5759C66.6659 10.6045 67.3939 10.1075 68.4159 10.1075C69.5439 10.1075 70.1809 10.6705 70.1809 11.6215V14.6985H69.3259V14.0655H69.2559C69.1131 14.2926 68.9126 14.4777 68.6749 14.6019C68.4372 14.7261 68.1708 14.785 67.9029 14.7725C67.7138 14.7922 67.5227 14.7721 67.3419 14.7134C67.1611 14.6547 66.9946 14.5587 66.8532 14.4317C66.7117 14.3047 66.5985 14.1494 66.5208 13.9759C66.443 13.8024 66.4015 13.6146 66.4009 13.4245ZM69.2959 13.0405V12.6635L68.1959 12.7335C67.5759 12.7755 67.2959 12.9865 67.2959 13.3835C67.2959 13.7885 67.6469 14.0235 68.1299 14.0235C68.2714 14.0378 68.4144 14.0235 68.5502 13.9814C68.6861 13.9394 68.8122 13.8705 68.921 13.7788C69.0297 13.6871 69.1189 13.5745 69.1833 13.4477C69.2477 13.3209 69.286 13.1824 69.2959 13.0405ZM71.3489 12.4445C71.3489 11.0215 72.0809 10.1205 73.2189 10.1205C73.5001 10.1077 73.7793 10.1752 74.0236 10.3151C74.268 10.455 74.4675 10.6615 74.5989 10.9105H74.6659V8.4375H75.5539V14.6975H74.7029V13.9875H74.6329C74.4911 14.235 74.2843 14.439 74.0349 14.5774C73.7854 14.7157 73.5029 14.7832 73.2179 14.7725C72.0729 14.7725 71.3489 13.8715 71.3489 12.4445ZM72.2669 12.4445C72.2669 13.3995 72.7169 13.9745 73.4699 13.9745C74.2199 13.9745 74.6819 13.3915 74.6819 12.4485C74.6819 11.5105 74.2139 10.9185 73.4699 10.9185C72.7219 10.9185 72.2669 11.4985 72.2669 12.4445ZM79.2309 12.4445C79.2029 12.1488 79.2369 11.8504 79.3309 11.5686C79.4249 11.2868 79.5767 11.0277 79.7766 10.808C79.9765 10.5883 80.2201 10.4127 80.4918 10.2926C80.7635 10.1725 81.0573 10.1104 81.3544 10.1104C81.6514 10.1104 81.9452 10.1725 82.2169 10.2926C82.4886 10.4127 82.7322 10.5883 82.9321 10.808C83.132 11.0277 83.2838 11.2868 83.3778 11.5686C83.4718 11.8504 83.5059 12.1488 83.4779 12.4445C83.5074 12.7411 83.4745 13.0406 83.3812 13.3237C83.2879 13.6068 83.1364 13.8672 82.9363 14.0882C82.7363 14.3092 82.4921 14.4858 82.2197 14.6066C81.9472 14.7275 81.6524 14.7899 81.3544 14.7899C81.0563 14.7899 80.7615 14.7275 80.4891 14.6066C80.2166 14.4858 79.9725 14.3092 79.7724 14.0882C79.5724 13.8672 79.4208 13.6068 79.3275 13.3237C79.2343 13.0406 79.2013 12.7411 79.2309 12.4445ZM82.5639 12.4445C82.5639 11.4685 82.1259 10.8975 81.3559 10.8975C80.5839 10.8975 80.1489 11.4685 80.1489 12.4445C80.1489 13.4285 80.5839 13.9945 81.3559 13.9945C82.1259 13.9945 82.5639 13.4245 82.5639 12.4445ZM84.6709 10.1955H85.5259V10.9105H85.5919C85.7046 10.6536 85.8946 10.4382 86.1356 10.2945C86.3765 10.1507 86.6562 10.0857 86.9359 10.1085C87.155 10.092 87.375 10.1251 87.5797 10.2052C87.7843 10.2853 87.9683 10.4104 88.118 10.5713C88.2677 10.7321 88.3793 10.9246 88.4446 11.1344C88.5098 11.3443 88.527 11.5661 88.4949 11.7835V14.6985H87.6059V12.0065C87.6059 11.2825 87.2919 10.9225 86.6339 10.9225C86.4851 10.9156 86.3367 10.941 86.1987 10.9968C86.0606 11.0526 85.9363 11.1377 85.8342 11.246C85.7321 11.3544 85.6547 11.4835 85.6071 11.6246C85.5596 11.7657 85.5431 11.9154 85.5589 12.0635V14.6985H84.6699L84.6709 10.1955ZM93.5159 9.0745V10.2155H94.4919V10.9645H93.5159V13.2795C93.5159 13.7515 93.7099 13.9585 94.1529 13.9585C94.2662 13.958 94.3794 13.951 94.4919 13.9375V14.6775C94.3321 14.7063 94.1702 14.7217 94.0079 14.7235C93.0199 14.7235 92.6269 14.3755 92.6269 13.5075V10.9645H91.9119V10.2155H92.6269V9.0745H93.5159ZM95.7059 8.4375H96.5859V10.9185H96.6559C96.7742 10.6592 96.9696 10.4426 97.2155 10.2984C97.4614 10.1542 97.7458 10.0892 98.0299 10.1125C98.2478 10.1007 98.4657 10.1371 98.6679 10.2192C98.8702 10.3013 99.0518 10.427 99.1998 10.5874C99.3479 10.7478 99.4587 10.9388 99.5244 11.147C99.5901 11.3551 99.609 11.5752 99.5799 11.7915V14.6985H98.6909V12.0105C98.6909 11.2905 98.3559 10.9265 97.7279 10.9265C97.5751 10.9139 97.4214 10.9349 97.2776 10.988C97.1337 11.0411 97.0032 11.1249 96.8952 11.2337C96.7872 11.3425 96.7043 11.4736 96.6522 11.6178C96.6002 11.762 96.5802 11.9158 96.5939 12.0685V14.6985H95.7059V8.4375ZM104.762 13.4825C104.641 13.8939 104.38 14.2498 104.023 14.4879C103.667 14.7261 103.238 14.8314 102.812 14.7855C102.515 14.7935 102.22 14.7368 101.947 14.6193C101.675 14.5018 101.431 14.3264 101.233 14.1051C101.035 13.8839 100.887 13.6221 100.801 13.3381C100.714 13.0541 100.69 12.7546 100.731 12.4605C100.691 12.1657 100.716 11.8658 100.802 11.5812C100.889 11.2967 101.036 11.034 101.232 10.811C101.429 10.588 101.672 10.4098 101.943 10.2887C102.215 10.1675 102.509 10.106 102.807 10.1085C104.06 10.1085 104.816 10.9645 104.816 12.3785V12.6885H101.636V12.7385C101.622 12.9038 101.643 13.0702 101.697 13.227C101.751 13.3839 101.837 13.5276 101.95 13.6491C102.063 13.7706 102.201 13.8671 102.353 13.9324C102.506 13.9978 102.67 14.0305 102.836 14.0285C103.048 14.0537 103.263 14.0152 103.454 13.918C103.644 13.8208 103.802 13.6692 103.906 13.4825H104.762ZM101.636 12.0315H103.911C103.922 11.8803 103.902 11.7283 103.851 11.5855C103.8 11.4426 103.72 11.312 103.615 11.2021C103.511 11.0921 103.384 11.0053 103.244 10.9472C103.104 10.889 102.953 10.8609 102.802 10.8645C102.648 10.8626 102.496 10.8915 102.353 10.9495C102.211 11.0075 102.082 11.0934 101.973 11.2022C101.864 11.3109 101.778 11.4403 101.721 11.5828C101.663 11.7252 101.634 11.8778 101.636 12.0315Z" fill="white"/>
</g>
<defs>
<clipPath id="clip0_1609_2744">
<rect width="119.664" height="40" fill="white"/>
</clipPath>
</defs>
</svg>
