<svg width="38" height="25" viewBox="0 0 38 25" fill="none" xmlns="http://www.w3.org/2000/svg">
<path opacity="0.07" d="M35 0.515625H3C1.3 0.515625 0 1.81562 0 3.51562V21.5156C0 23.2156 1.4 24.5156 3 24.5156H35C36.7 24.5156 38 23.2156 38 21.5156V3.51562C38 1.81562 36.6 0.515625 35 0.515625Z" fill="black"/>
<path d="M35 1.51562C36.1 1.51562 37 2.41562 37 3.51562V21.5156C37 22.6156 36.1 23.5156 35 23.5156H3C1.9 23.5156 1 22.6156 1 21.5156V3.51562C1 2.41562 1.9 1.51562 3 1.51562H35Z" fill="white"/>
<path d="M15 19.5156C18.866 19.5156 22 16.3816 22 12.5156C22 8.64963 18.866 5.51562 15 5.51562C11.134 5.51562 8 8.64963 8 12.5156C8 16.3816 11.134 19.5156 15 19.5156Z" fill="#EB001B"/>
<path d="M23 19.5156C26.866 19.5156 30 16.3816 30 12.5156C30 8.64963 26.866 5.51562 23 5.51562C19.134 5.51562 16 8.64963 16 12.5156C16 16.3816 19.134 19.5156 23 19.5156Z" fill="#F79E1B"/>
<path d="M22 12.5164C22 10.1164 20.8 8.01641 19 6.81641C17.2 8.11641 16 10.2164 16 12.5164C16 14.8164 17.2 17.0164 19 18.2164C20.8 17.0164 22 14.9164 22 12.5164Z" fill="#FF5F00"/>
</svg>
