<svg width="38" height="25" viewBox="0 0 38 25" fill="none" xmlns="http://www.w3.org/2000/svg">
<path opacity="0.07" d="M35 0.515625H3C1.3 0.515625 0 1.81562 0 3.51562V21.5156C0 23.2156 1.4 24.5156 3 24.5156H35C36.7 24.5156 38 23.2156 38 21.5156V3.51562C38 1.81562 36.6 0.515625 35 0.515625Z" fill="black"/>
<path d="M35 1.51562C36.1 1.51562 37 2.41562 37 3.51562V21.5156C37 22.6156 36.1 23.5156 35 23.5156H3C1.9 23.5156 1 22.6156 1 21.5156V3.51562C1 2.41562 1.9 1.51562 3 1.51562H35Z" fill="white"/>
<path d="M23.9 8.81563C24.1 7.81563 23.9 7.11563 23.3 6.51562C22.7 5.81563 21.6 5.51562 20.2 5.51562H16.1C15.8 5.51562 15.6 5.71562 15.5 6.01562L14 16.1156C14 16.3156 14.1 16.5156 14.3 16.5156H17L17.4 13.1156L19.2 10.9156L23.9 8.81563Z" fill="#003087"/>
<path d="M23.9016 8.81641L23.7016 9.01641C23.2016 11.8164 21.5016 12.8164 19.1016 12.8164H18.0016C17.7016 12.8164 17.5016 13.0164 17.4016 13.3164L16.8016 17.2164L16.6016 18.2164C16.6016 18.4164 16.7016 18.6164 16.9016 18.6164H19.0016C19.3016 18.6164 19.5016 18.4164 19.5016 18.2164V18.1164L19.9016 15.7164V15.6164C19.9016 15.4164 20.2016 15.2164 20.4016 15.2164H20.7016C22.8016 15.2164 24.4016 14.4164 24.8016 12.0164C25.0016 11.0164 24.9016 10.2164 24.4016 9.61641C24.3016 9.11641 24.1016 8.91641 23.9016 8.81641Z" fill="#3086C8"/>
<path d="M23.2984 8.61641C23.1984 8.51641 23.0984 8.51641 22.9984 8.51641C22.8984 8.51641 22.7984 8.51641 22.6984 8.41641C22.3984 8.31641 21.9984 8.31641 21.5984 8.31641H18.5984C18.4984 8.31641 18.3984 8.31641 18.3984 8.41641C18.1984 8.51641 18.0984 8.61641 18.0984 8.81641L17.3984 13.2164V13.3164C17.3984 13.0164 17.6984 12.8164 17.9984 12.8164H19.2984C21.7984 12.8164 23.3984 11.8164 23.8984 9.01641V8.81641C23.7984 8.71641 23.5984 8.61641 23.3984 8.61641H23.2984Z" fill="#012169"/>
</svg>
