<svg width="38" height="25" viewBox="0 0 38 25" fill="none" xmlns="http://www.w3.org/2000/svg">
<path opacity="0.07" d="M35 0.515625H3C1.3 0.515625 0 1.81562 0 3.51562V21.5156C0 23.2156 1.4 24.5156 3 24.5156H35C36.7 24.5156 38 23.2156 38 21.5156V3.51562C38 1.81562 36.6 0.515625 35 0.515625Z" fill="black"/>
<path d="M35 1.51562C36.1 1.51562 37 2.41562 37 3.51562V21.5156C37 22.6156 36.1 23.5156 35 23.5156H3C1.9 23.5156 1 22.6156 1 21.5156V3.51562C1 2.41562 1.9 1.51562 3 1.51562H35Z" fill="white"/>
<path d="M28.3 10.6156H28C27.6 11.6156 27.3 12.1156 27 13.6156H28.9C28.6 12.1156 28.6 11.4156 28.3 10.6156ZM31.2 16.5156H29.5C29.4 16.5156 29.4 16.5156 29.3 16.4156L29.1 15.5156L29 15.3156H26.6C26.5 15.3156 26.4 15.3156 26.4 15.5156L26.1 16.4156C26.1 16.5156 26 16.5156 26 16.5156H23.9L24.1 16.0156L27 9.21562C27 8.71562 27.3 8.51562 27.8 8.51562H29.3C29.4 8.51562 29.5 8.51562 29.5 8.71562L30.9 15.2156C31 15.6156 31.1 15.9156 31.1 16.3156C31.2 16.4156 31.2 16.4156 31.2 16.5156ZM17.8 16.2156L18.2 14.4156C18.3 14.4156 18.4 14.5156 18.4 14.5156C19.1 14.8156 19.8 15.0156 20.5 14.9156C20.7 14.9156 21 14.8156 21.2 14.7156C21.7 14.5156 21.7 14.0156 21.3 13.6156C21.1 13.4156 20.8 13.3156 20.5 13.1156C20.1 12.9156 19.7 12.7156 19.4 12.4156C18.2 11.4156 18.6 10.0156 19.3 9.31563C19.9 8.91563 20.2 8.51562 21 8.51562C22.2 8.51562 23.5 8.51562 24.1 8.71562H24.2C24.1 9.31562 24 9.81562 23.8 10.4156C23.3 10.2156 22.8 10.0156 22.3 10.0156C22 10.0156 21.7 10.0156 21.4 10.1156C21.2 10.1156 21.1 10.2156 21 10.3156C20.8 10.5156 20.8 10.8156 21 11.0156L21.5 11.4156C21.9 11.6156 22.3 11.8156 22.6 12.0156C23.1 12.3156 23.6 12.8156 23.7 13.4156C23.9 14.3156 23.6 15.1156 22.8 15.7156C22.3 16.1156 22.1 16.3156 21.4 16.3156C20 16.3156 18.9 16.4156 18 16.1156C17.9 16.3156 17.9 16.3156 17.8 16.2156ZM14.3 16.5156C14.4 15.8156 14.4 15.8156 14.5 15.5156C15 13.3156 15.5 11.0156 15.9 8.81563C16 8.61563 16 8.51562 16.2 8.51562H18C17.8 9.71563 17.6 10.6156 17.3 11.7156C17 13.2156 16.7 14.7156 16.3 16.2156C16.3 16.4156 16.2 16.4156 16 16.4156M5 8.71562C5 8.61562 5.2 8.51562 5.3 8.51562H8.7C9.2 8.51562 9.6 8.81563 9.7 9.31563L10.6 13.7156C10.6 13.8156 10.6 13.8156 10.7 13.9156C10.7 13.8156 10.8 13.8156 10.8 13.8156L12.9 8.71562C12.8 8.61562 12.9 8.51562 13 8.51562H15.1C15.1 8.61563 15.1 8.61562 15 8.71562L11.9 16.0156C11.8 16.2156 11.8 16.3156 11.7 16.4156C11.6 16.5156 11.4 16.4156 11.2 16.4156H9.7C9.6 16.4156 9.5 16.4156 9.5 16.2156L7.9 10.0156C7.7 9.81562 7.4 9.51562 7 9.41562C6.4 9.11562 5.3 8.91562 5.1 8.91562L5 8.71562Z" fill="#142688"/>
</svg>
