<svg width="24" height="25" viewBox="0 0 24 25" fill="none" xmlns="http://www.w3.org/2000/svg">
<path d="M5.85 17.8891C6.7 17.2391 7.65 16.7266 8.7 16.3516C9.75 15.9766 10.85 15.7891 12 15.7891C13.15 15.7891 14.25 15.9766 15.3 16.3516C16.35 16.7266 17.3 17.2391 18.15 17.8891C18.7333 17.2057 19.1875 16.4307 19.5125 15.5641C19.8375 14.6974 20 13.7724 20 12.7891C20 10.5724 19.2208 8.6849 17.6625 7.12656C16.1042 5.56823 14.2167 4.78906 12 4.78906C9.78333 4.78906 7.89583 5.56823 6.3375 7.12656C4.77917 8.6849 4 10.5724 4 12.7891C4 13.7724 4.1625 14.6974 4.4875 15.5641C4.8125 16.4307 5.26667 17.2057 5.85 17.8891ZM12 13.7891C11.0167 13.7891 10.1875 13.4516 9.5125 12.7766C8.8375 12.1016 8.5 11.2724 8.5 10.2891C8.5 9.30573 8.8375 8.47656 9.5125 7.80156C10.1875 7.12656 11.0167 6.78906 12 6.78906C12.9833 6.78906 13.8125 7.12656 14.4875 7.80156C15.1625 8.47656 15.5 9.30573 15.5 10.2891C15.5 11.2724 15.1625 12.1016 14.4875 12.7766C13.8125 13.4516 12.9833 13.7891 12 13.7891ZM12 22.7891C10.6167 22.7891 9.31667 22.5266 8.1 22.0016C6.88333 21.4766 5.825 20.7641 4.925 19.8641C4.025 18.9641 3.3125 17.9057 2.7875 16.6891C2.2625 15.4724 2 14.1724 2 12.7891C2 11.4057 2.2625 10.1057 2.7875 8.88906C3.3125 7.6724 4.025 6.61406 4.925 5.71406C5.825 4.81406 6.88333 4.10156 8.1 3.57656C9.31667 3.05156 10.6167 2.78906 12 2.78906C13.3833 2.78906 14.6833 3.05156 15.9 3.57656C17.1167 4.10156 18.175 4.81406 19.075 5.71406C19.975 6.61406 20.6875 7.6724 21.2125 8.88906C21.7375 10.1057 22 11.4057 22 12.7891C22 14.1724 21.7375 15.4724 21.2125 16.6891C20.6875 17.9057 19.975 18.9641 19.075 19.8641C18.175 20.7641 17.1167 21.4766 15.9 22.0016C14.6833 22.5266 13.3833 22.7891 12 22.7891ZM12 20.7891C12.8833 20.7891 13.7167 20.6599 14.5 20.4016C15.2833 20.1432 16 19.7724 16.65 19.2891C16 18.8057 15.2833 18.4349 14.5 18.1766C13.7167 17.9182 12.8833 17.7891 12 17.7891C11.1167 17.7891 10.2833 17.9182 9.5 18.1766C8.71667 18.4349 8 18.8057 7.35 19.2891C8 19.7724 8.71667 20.1432 9.5 20.4016C10.2833 20.6599 11.1167 20.7891 12 20.7891ZM12 11.7891C12.4333 11.7891 12.7917 11.6474 13.075 11.3641C13.3583 11.0807 13.5 10.7224 13.5 10.2891C13.5 9.85573 13.3583 9.4974 13.075 9.21406C12.7917 8.93073 12.4333 8.78906 12 8.78906C11.5667 8.78906 11.2083 8.93073 10.925 9.21406C10.6417 9.4974 10.5 9.85573 10.5 10.2891C10.5 10.7224 10.6417 11.0807 10.925 11.3641C11.2083 11.6474 11.5667 11.7891 12 11.7891Z" fill="#5F6368"/>
</svg>
