<svg width="24" height="25" viewBox="0 0 24 25" fill="none" xmlns="http://www.w3.org/2000/svg">
<path d="M7 22.7891C6.45 22.7891 5.97917 22.5932 5.5875 22.2016C5.19583 21.8099 5 21.3391 5 20.7891C5 20.2391 5.19583 19.7682 5.5875 19.3766C5.97917 18.9849 6.45 18.7891 7 18.7891C7.55 18.7891 8.02083 18.9849 8.4125 19.3766C8.80417 19.7682 9 20.2391 9 20.7891C9 21.3391 8.80417 21.8099 8.4125 22.2016C8.02083 22.5932 7.55 22.7891 7 22.7891ZM17 22.7891C16.45 22.7891 15.9792 22.5932 15.5875 22.2016C15.1958 21.8099 15 21.3391 15 20.7891C15 20.2391 15.1958 19.7682 15.5875 19.3766C15.9792 18.9849 16.45 18.7891 17 18.7891C17.55 18.7891 18.0208 18.9849 18.4125 19.3766C18.8042 19.7682 19 20.2391 19 20.7891C19 21.3391 18.8042 21.8099 18.4125 22.2016C18.0208 22.5932 17.55 22.7891 17 22.7891ZM6.15 6.78906L8.55 11.7891H15.55L18.3 6.78906H6.15ZM5.2 4.78906H19.95C20.3333 4.78906 20.625 4.9599 20.825 5.30156C21.025 5.64323 21.0333 5.98906 20.85 6.33906L17.3 12.7391C17.1167 13.0724 16.8708 13.3307 16.5625 13.5141C16.2542 13.6974 15.9167 13.7891 15.55 13.7891H8.1L7 15.7891H19V17.7891H7C6.25 17.7891 5.68333 17.4599 5.3 16.8016C4.91667 16.1432 4.9 15.4891 5.25 14.8391L6.6 12.3891L3 4.78906H1V2.78906H4.25L5.2 4.78906Z" fill="#5F6368"/>
</svg>
