<svg width="24" height="25" viewBox="0 0 24 25" fill="none" xmlns="http://www.w3.org/2000/svg">
<path d="M12 21.7875L10.55 20.4875C8.86667 18.9708 7.475 17.6625 6.375 16.5625C5.275 15.4625 4.4 14.475 3.75 13.6C3.1 12.725 2.64583 11.9208 2.3875 11.1875C2.12917 10.4542 2 9.70417 2 8.9375C2 7.37083 2.525 6.0625 3.575 5.0125C4.625 3.9625 5.93333 3.4375 7.5 3.4375C8.36667 3.4375 9.19167 3.62083 9.975 3.9875C10.7583 4.35417 11.4333 4.87083 12 5.5375C12.5667 4.87083 13.2417 4.35417 14.025 3.9875C14.8083 3.62083 15.6333 3.4375 16.5 3.4375C18.0667 3.4375 19.375 3.9625 20.425 5.0125C21.475 6.0625 22 7.37083 22 8.9375C22 9.70417 21.8708 10.4542 21.6125 11.1875C21.3542 11.9208 20.9 12.725 20.25 13.6C19.6 14.475 18.725 15.4625 17.625 16.5625C16.525 17.6625 15.1333 18.9708 13.45 20.4875L12 21.7875ZM12 19.0875C13.6 17.6542 14.9167 16.425 15.95 15.4C16.9833 14.375 17.8 13.4833 18.4 12.725C19 11.9667 19.4167 11.2917 19.65 10.7C19.8833 10.1083 20 9.52083 20 8.9375C20 7.9375 19.6667 7.10417 19 6.4375C18.3333 5.77083 17.5 5.4375 16.5 5.4375C15.7167 5.4375 14.9917 5.65833 14.325 6.1C13.6583 6.54167 13.2 7.10417 12.95 7.7875H11.05C10.8 7.10417 10.3417 6.54167 9.675 6.1C9.00833 5.65833 8.28333 5.4375 7.5 5.4375C6.5 5.4375 5.66667 5.77083 5 6.4375C4.33333 7.10417 4 7.9375 4 8.9375C4 9.52083 4.11667 10.1083 4.35 10.7C4.58333 11.2917 5 11.9667 5.6 12.725C6.2 13.4833 7.01667 14.375 8.05 15.4C9.08333 16.425 10.4 17.6542 12 19.0875Z" fill="#5F6368"/>
</svg>
