<svg width="16" height="16" viewBox="0 0 16 16" fill="none" xmlns="http://www.w3.org/2000/svg">
<path d="M14.3466 15.5405L10.552 11.7352C10.052 12.1352 9.47695 12.4518 8.82695 12.6852C8.17695 12.9185 7.48529 13.0352 6.75195 13.0352C4.93529 13.0352 3.39779 12.406 2.13945 11.1477C0.88112 9.88932 0.251953 8.35182 0.251953 6.53516C0.251953 4.71849 0.88112 3.18099 2.13945 1.92266C3.39779 0.664323 4.93529 0.0351562 6.75195 0.0351562C8.56862 0.0351562 10.1061 0.664323 11.3645 1.92266C12.6228 3.18099 13.252 4.71849 13.252 6.53516C13.252 7.26849 13.1353 7.96016 12.902 8.61016C12.6686 9.26016 12.352 9.83516 11.952 10.3352L15.7466 14.1405L14.3466 15.5405ZM6.75195 11.0352C8.00195 11.0352 9.06445 10.5977 9.93945 9.72266C10.8145 8.84766 11.252 7.78516 11.252 6.53516C11.252 5.28516 10.8145 4.22266 9.93945 3.34766C9.06445 2.47266 8.00195 2.03516 6.75195 2.03516C5.50195 2.03516 4.43945 2.47266 3.56445 3.34766C2.68945 4.22266 2.25195 5.28516 2.25195 6.53516C2.25195 7.78516 2.68945 8.84766 3.56445 9.72266C4.43945 10.5977 5.50195 11.0352 6.75195 11.0352Z" fill="black"/>
</svg>
