<svg width="132" height="22" viewBox="0 0 132 22" fill="none" xmlns="http://www.w3.org/2000/svg">
<path d="M18.8823 20.7891L13.4823 2.96906L12.6723 0.359061H16.4823L22.0023 18.6591L20.1423 18.4791L24.9123 0.359061H28.8723L23.2923 20.7891H18.8823ZM5.8623 20.7891L0.282305 0.359061H4.24231L9.0123 18.4791L7.15231 18.6591L12.6723 0.359061H16.4823L15.7023 2.96906L10.2723 20.7891H5.8623ZM36.5059 21.1491C34.9859 21.1491 33.6459 20.8291 32.4859 20.1891C31.3459 19.5291 30.4559 18.6291 29.8159 17.4891C29.1759 16.3291 28.8559 14.9891 28.8559 13.4691C28.8559 11.9491 29.1759 10.6191 29.8159 9.47906C30.4559 8.31906 31.3459 7.41906 32.4859 6.77906C33.6459 6.11906 34.9859 5.78906 36.5059 5.78906C38.0259 5.78906 39.3559 6.11906 40.4959 6.77906C41.6559 7.41906 42.5559 8.31906 43.1959 9.47906C43.8359 10.6191 44.1559 11.9491 44.1559 13.4691C44.1559 14.9891 43.8359 16.3291 43.1959 17.4891C42.5559 18.6291 41.6559 19.5291 40.4959 20.1891C39.3559 20.8291 38.0259 21.1491 36.5059 21.1491ZM36.5059 17.3391C37.5859 17.3391 38.4659 16.9791 39.1459 16.2591C39.8259 15.5391 40.1659 14.6091 40.1659 13.4691C40.1659 12.3091 39.8259 11.3691 39.1459 10.6491C38.4659 9.92906 37.5859 9.56906 36.5059 9.56906C35.4259 9.56906 34.5459 9.92906 33.8659 10.6491C33.2059 11.3491 32.8759 12.2791 32.8759 13.4391C32.8759 14.5991 33.2059 15.5391 33.8659 16.2591C34.5459 16.9791 35.4259 17.3391 36.5059 17.3391ZM53.0879 21.1491C51.5679 21.1491 50.2279 20.8291 49.0679 20.1891C47.9279 19.5291 47.0379 18.6291 46.3979 17.4891C45.7579 16.3291 45.4379 14.9891 45.4379 13.4691C45.4379 11.9491 45.7579 10.6191 46.3979 9.47906C47.0379 8.31906 47.9279 7.41906 49.0679 6.77906C50.2279 6.11906 51.5679 5.78906 53.0879 5.78906C54.6079 5.78906 55.9379 6.11906 57.0779 6.77906C58.2379 7.41906 59.1379 8.31906 59.7779 9.47906C60.4179 10.6191 60.7379 11.9491 60.7379 13.4691C60.7379 14.9891 60.4179 16.3291 59.7779 17.4891C59.1379 18.6291 58.2379 19.5291 57.0779 20.1891C55.9379 20.8291 54.6079 21.1491 53.0879 21.1491ZM53.0879 17.3391C54.1679 17.3391 55.0479 16.9791 55.7279 16.2591C56.4079 15.5391 56.7479 14.6091 56.7479 13.4691C56.7479 12.3091 56.4079 11.3691 55.7279 10.6491C55.0479 9.92906 54.1679 9.56906 53.0879 9.56906C52.0079 9.56906 51.1279 9.92906 50.4479 10.6491C49.7879 11.3491 49.4579 12.2791 49.4579 13.4391C49.4579 14.5991 49.7879 15.5391 50.4479 16.2591C51.1279 16.9791 52.0079 17.3391 53.0879 17.3391ZM70.2357 21.2691C69.0957 21.2691 68.0157 21.0991 66.9957 20.7591C65.9757 20.4191 65.0557 19.8891 64.2357 19.1691C63.4357 18.4491 62.7557 17.5091 62.1957 16.3491L65.3157 14.4591C65.9357 15.5191 66.6657 16.3091 67.5057 16.8291C68.3457 17.3491 69.3157 17.6091 70.4157 17.6091C71.4157 17.6091 72.1757 17.3991 72.6957 16.9791C73.2157 16.5391 73.4757 15.9591 73.4757 15.2391C73.4757 14.7791 73.3557 14.3891 73.1157 14.0691C72.8957 13.7291 72.4957 13.4091 71.9157 13.1091C71.3357 12.8091 70.4957 12.5391 69.3957 12.2991C67.7557 11.8991 66.4657 11.3991 65.5257 10.7991C64.6057 10.1991 63.9557 9.49906 63.5757 8.69906C63.1957 7.87906 63.0057 6.97906 63.0057 5.99906C63.0057 4.81906 63.2857 3.78906 63.8457 2.90906C64.4257 2.00906 65.2457 1.29906 66.3057 0.779061C67.3657 0.259062 68.6257 -0.000938058 70.0857 -0.000938058C71.7657 -0.000938058 73.1757 0.329062 74.3157 0.989062C75.4557 1.62906 76.3857 2.49906 77.1057 3.59906L73.9857 5.72906C73.4257 5.00906 72.7857 4.49906 72.0657 4.19906C71.3657 3.87906 70.6457 3.71906 69.9057 3.71906C68.9457 3.71906 68.2057 3.90906 67.6857 4.28906C67.1857 4.66906 66.9357 5.19906 66.9357 5.87906C66.9357 6.47906 67.1857 6.99906 67.6857 7.43906C68.2057 7.85906 69.2057 8.24906 70.6857 8.60906C72.3657 9.00906 73.7057 9.49906 74.7057 10.0791C75.7057 10.6591 76.4157 11.3591 76.8357 12.1791C77.2757 12.9991 77.4957 13.9891 77.4957 15.1491C77.4957 16.3091 77.1957 17.3491 76.5957 18.2691C76.0157 19.1891 75.1757 19.9191 74.0757 20.4591C72.9957 20.9991 71.7157 21.2691 70.2357 21.2691ZM85.7399 21.0591C84.2399 21.0591 83.0499 20.6691 82.1699 19.8891C81.3099 19.0891 80.8799 17.8191 80.8799 16.0791V6.29906L80.8199 6.11906L81.6299 2.66906H84.8099V15.4491C84.8099 16.0891 84.9599 16.5591 85.2599 16.8591C85.5799 17.1391 85.9799 17.2791 86.4599 17.2791C86.7799 17.2791 87.0699 17.2591 87.3299 17.2191C87.5899 17.1591 87.8199 17.0991 88.0199 17.0391V20.6991C87.6999 20.8191 87.3599 20.9091 86.9999 20.9691C86.6399 21.0291 86.2199 21.0591 85.7399 21.0591ZM78.5999 9.74906V6.11906H88.0199V9.74906H78.5999ZM97.6485 21.1491C96.1285 21.1491 94.7885 20.8291 93.6285 20.1891C92.4885 19.5291 91.5985 18.6291 90.9585 17.4891C90.3185 16.3291 89.9985 14.9891 89.9985 13.4691C89.9985 11.9491 90.3185 10.6191 90.9585 9.47906C91.5985 8.31906 92.4885 7.41906 93.6285 6.77906C94.7885 6.11906 96.1285 5.78906 97.6485 5.78906C99.1685 5.78906 100.498 6.11906 101.638 6.77906C102.798 7.41906 103.698 8.31906 104.338 9.47906C104.978 10.6191 105.298 11.9491 105.298 13.4691C105.298 14.9891 104.978 16.3291 104.338 17.4891C103.698 18.6291 102.798 19.5291 101.638 20.1891C100.498 20.8291 99.1685 21.1491 97.6485 21.1491ZM97.6485 17.3391C98.7285 17.3391 99.6085 16.9791 100.288 16.2591C100.968 15.5391 101.308 14.6091 101.308 13.4691C101.308 12.3091 100.968 11.3691 100.288 10.6491C99.6085 9.92906 98.7285 9.56906 97.6485 9.56906C96.5685 9.56906 95.6885 9.92906 95.0085 10.6491C94.3485 11.3491 94.0185 12.2791 94.0185 13.4391C94.0185 14.5991 94.3485 15.5391 95.0085 16.2591C95.6885 16.9791 96.5685 17.3391 97.6485 17.3391ZM110.596 6.11906L111.586 10.1691V20.7891H107.656V6.11906H110.596ZM110.776 12.1791L110.056 11.8491V8.84906L110.326 8.51906C110.546 8.15906 110.876 7.76906 111.316 7.34906C111.776 6.92906 112.296 6.56906 112.876 6.26906C113.476 5.94906 114.096 5.78906 114.736 5.78906C115.056 5.78906 115.346 5.80906 115.606 5.84906C115.866 5.88906 116.066 5.95906 116.206 6.05906V9.62906H115.246C113.946 9.62906 112.946 9.83906 112.246 10.2591C111.546 10.6591 111.056 11.2991 110.776 12.1791ZM124.124 21.0891C122.664 21.0891 121.384 20.7791 120.284 20.1591C119.184 19.5191 118.334 18.6291 117.734 17.4891C117.134 16.3491 116.834 15.0091 116.834 13.4691C116.834 11.9491 117.134 10.6191 117.734 9.47906C118.334 8.31906 119.184 7.41906 120.284 6.77906C121.384 6.11906 122.664 5.78906 124.124 5.78906C125.604 5.78906 126.884 6.11906 127.964 6.77906C129.064 7.43906 129.914 8.34906 130.514 9.50906C131.114 10.6491 131.414 11.9591 131.414 13.4391C131.414 13.6591 131.404 13.8791 131.384 14.0991C131.384 14.2991 131.364 14.4691 131.324 14.6091H120.044V11.6691H128.354L127.754 13.0791C127.754 11.8391 127.454 10.8291 126.854 10.0491C126.274 9.26906 125.364 8.87906 124.124 8.87906C123.044 8.87906 122.174 9.21906 121.514 9.89906C120.854 10.5591 120.524 11.4491 120.524 12.5691V14.1591C120.524 15.3391 120.854 16.2691 121.514 16.9491C122.194 17.6091 123.114 17.9391 124.274 17.9391C125.294 17.9391 126.094 17.7291 126.674 17.3091C127.254 16.8891 127.754 16.3691 128.174 15.7491L130.904 17.3091C130.244 18.5291 129.344 19.4691 128.204 20.1291C127.084 20.7691 125.724 21.0891 124.124 21.0891Z" fill="black"/>
</svg>
